<svg width="163" height="40" viewBox="0 0 163 40" fill="none" xmlns="http://www.w3.org/2000/svg">
<g clip-path="url(#clip0)">
<path d="M38.125 20.0126C38.1494 23.1792 37.3398 26.2964 35.7774 29.0509C35.575 29.4087 35.3607 29.7587 35.1344 30.1009C35.0225 30.2748 34.8772 30.4248 34.7069 30.5421C34.5367 30.6595 34.3448 30.7419 34.1424 30.7845C33.94 30.8271 33.7312 30.8291 33.5281 30.7905C33.3249 30.7518 33.1315 30.6732 32.9589 30.5591C32.7864 30.4451 32.6382 30.298 32.523 30.1263C32.4077 29.9546 32.3277 29.7617 32.2875 29.5588C32.2474 29.356 32.2479 29.1472 32.2891 28.9445C32.3303 28.7418 32.4113 28.5494 32.5274 28.3782C34.0185 26.1147 34.8685 23.4894 34.987 20.7814C35.1054 18.0734 34.4879 15.3839 33.2001 12.9988C31.9123 10.6137 30.0022 8.62211 27.673 7.23572C25.3438 5.84933 22.6825 5.11996 19.9719 5.12513C14.7618 5.13529 10.1422 7.87044 7.45706 11.9571C5.85189 14.3953 4.99772 17.2509 5.0005 20.17C5.00327 23.0891 5.86288 25.9432 7.47269 28.3782C7.70092 28.7241 7.78239 29.1466 7.69917 29.5525C7.61595 29.9585 7.37486 30.3148 7.02894 30.5431C6.68302 30.7713 6.2606 30.8528 5.85461 30.7695C5.44863 30.6863 5.09233 30.4452 4.8641 30.0993C3.0791 27.3905 2.05381 24.2522 1.89521 21.012C1.73662 17.7718 2.45053 14.5485 3.96245 11.6783C5.47437 8.80809 7.72889 6.39624 10.4907 4.69444C13.2526 2.99264 16.4206 2.06325 19.6641 2.00325C19.7782 2.00091 19.8914 2.00013 20.0047 2.00013C24.7949 1.99026 29.3933 3.8814 32.7905 7.25844C36.1878 10.6355 38.1063 15.2225 38.125 20.0126Z" fill="#494D4B"/>
<path d="M9.06588 22.9194L11.8978 37.0069C12.0678 37.8526 12.8911 38.4003 13.7368 38.2303C14.5825 38.0603 15.1303 37.2369 14.9603 36.3913L12.1284 22.3038C11.9584 21.4581 11.135 20.9103 10.2893 21.0803C9.44363 21.2503 8.89588 22.0737 9.06588 22.9194Z" fill="#04D361"/>
<path d="M11.8438 36.6891L11.1258 36.8336C10.059 37.0484 8.95038 36.8475 8.02677 36.272C7.10316 35.6965 6.43432 34.7898 6.15706 33.7375C6.13597 33.6563 6.11644 33.575 6.10003 33.4922L5.07112 28.3805C4.84815 27.2709 5.07485 26.1181 5.70141 25.1756C6.32796 24.233 7.3031 23.5778 8.41253 23.3539L9.1305 23.2094L10.3899 29.4656L11.8438 36.6891Z" fill="#494D4B"/>
<path d="M11.8438 36.6891L11.1259 36.8336C10.059 37.0484 8.95043 36.8475 8.02682 36.272C7.1032 35.6965 6.43437 34.7899 6.1571 33.7375C7.67448 32.4231 9.08951 30.995 10.3899 29.4657L11.8438 36.6891Z" fill="#494D4B"/>
<path d="M36.1477 27.2125L35.7774 29.0508C35.575 29.4086 35.3607 29.7586 35.1344 30.1008C35.0225 30.2747 34.8772 30.4247 34.7069 30.5421C34.5366 30.6594 34.3448 30.7418 34.1424 30.7844C33.94 30.827 33.7312 30.8291 33.5281 30.7904C33.3249 30.7517 33.1315 30.6731 32.9589 30.5591C32.7864 30.4451 32.6382 30.2979 32.5229 30.1262C32.4077 29.9545 32.3277 29.7616 32.2875 29.5588C32.2474 29.3559 32.2479 29.1471 32.2891 28.9444C32.3303 28.7417 32.4112 28.5493 32.5274 28.3781C33.5865 26.7752 34.3258 24.9827 34.7047 23.0992C35.2927 23.5918 35.7371 24.2339 35.991 24.9577C36.245 25.6816 36.2991 26.4605 36.1477 27.2125Z" fill="#494D4B"/>
<path d="M34.2953 8.95474L32.0539 11.1961C30.6573 9.30753 28.836 7.77394 26.7371 6.71929C24.6383 5.66465 22.3208 5.11852 19.9719 5.12505C14.7617 5.1352 10.1422 7.87036 7.45703 11.957L5.18359 9.68364C6.82274 7.35441 8.98843 5.44487 11.5046 4.1103C14.0207 2.77572 16.8163 2.05378 19.6641 2.00317C19.7781 2.00083 19.8914 2.00005 20.0047 2.00005C22.7591 1.99388 25.4786 2.61726 27.9553 3.82259C30.4321 5.02793 32.6006 6.78333 34.2953 8.95474Z" fill="#8257E5"/>
<path d="M27.8464 22.2885L25.0145 36.376C24.8445 37.2217 25.3922 38.0451 26.2379 38.2151C27.0836 38.3851 27.907 37.8373 28.077 36.9916L30.9089 22.9041C31.0789 22.0585 30.5311 21.2351 29.6854 21.0651C28.8397 20.8951 28.0164 21.4428 27.8464 22.2885Z" fill="#04D361"/>
<path d="M34.9289 28.3805L33.9 33.4922C33.6766 34.6017 33.0216 35.5771 32.0791 36.2037C31.1366 36.8304 29.9838 37.0569 28.8742 36.8336L28.1562 36.6891L28.9 32.9961L30.8695 23.2094L31.5875 23.3539C32.6968 23.5781 33.672 24.233 34.2992 25.175C34.3856 25.3049 34.4646 25.4394 34.5359 25.5781C34.9817 26.4404 35.1203 27.4288 34.9289 28.3805Z" fill="#494D4B"/>
<path d="M34.9289 28.3805L33.9 33.4922C33.6766 34.6018 33.0216 35.5771 32.0791 36.2038C31.1366 36.8304 29.9838 37.057 28.8742 36.8336L28.1562 36.6891L28.9 32.9961C31.0403 30.7336 32.9299 28.2465 34.5359 25.5781C34.9817 26.4404 35.1203 27.4289 34.9289 28.3805Z" fill="#494D4B"/>
<path d="M56.4855 31.2C55.1922 31.2 54.0789 30.9667 53.1455 30.5C52.2255 30.02 51.4389 29.3333 50.7855 28.44L52.6055 26.38C53.2589 27.2867 53.9055 27.9067 54.5455 28.24C55.1855 28.56 55.8922 28.72 56.6655 28.72C57.2922 28.72 57.8189 28.5867 58.2455 28.32C58.6855 28.0533 58.9055 27.6933 58.9055 27.24C58.9055 26.6933 58.6255 26.2667 58.0655 25.96C57.5189 25.64 56.8122 25.3933 55.9455 25.22C54.4389 24.9 53.3189 24.3867 52.5855 23.68C51.8522 22.9733 51.4855 22.0333 51.4855 20.86C51.4855 20.0467 51.7189 19.3333 52.1855 18.72C52.6522 18.0933 53.2655 17.6067 54.0255 17.26C54.7989 16.9133 55.6522 16.74 56.5855 16.74C57.8255 16.74 58.8522 16.9533 59.6655 17.38C60.4922 17.7933 61.1456 18.3867 61.6256 19.16L59.7655 20.98C58.9389 19.8067 57.8855 19.22 56.6055 19.22C55.9389 19.22 55.3989 19.36 54.9855 19.64C54.5855 19.9067 54.3855 20.2733 54.3855 20.74C54.3855 21.2333 54.6189 21.62 55.0855 21.9C55.5655 22.18 56.2055 22.4 57.0055 22.56C58.4722 22.8667 59.6322 23.36 60.4855 24.04C61.3522 24.7067 61.7855 25.6067 61.7855 26.74C61.7855 27.6733 61.5589 28.4733 61.1055 29.14C60.6655 29.8067 60.0455 30.32 59.2455 30.68C58.4589 31.0267 57.5389 31.2 56.4855 31.2ZM65.2032 31V22.9H63.2032V20.44H65.2032V17.74H67.9232V20.44H70.1432V22.9H67.9232V31H65.2032ZM73.4952 35.6L75.4552 31.06L70.6552 20.44H73.7552L76.4352 26.76C76.5552 27.04 76.6752 27.3667 76.7952 27.74C76.8486 27.5933 76.8952 27.4533 76.9352 27.32C76.9886 27.1733 77.0419 27.02 77.0952 26.86L79.3952 20.44H82.5352L78.0952 31L76.2752 35.6H73.4952ZM84.0855 31V16.2H86.8055V31H84.0855ZM94.4948 31.2C93.3614 31.2 92.3681 30.9667 91.5148 30.5C90.6614 30.0333 89.9948 29.3933 89.5148 28.58C89.0481 27.7667 88.8148 26.8333 88.8148 25.78C88.8148 24.6867 89.0414 23.7267 89.4948 22.9C89.9614 22.06 90.5948 21.4 91.3948 20.92C92.2081 20.44 93.1414 20.2 94.1948 20.2C95.1414 20.2 95.9881 20.4333 96.7348 20.9C97.4948 21.3533 98.0814 21.9733 98.4948 22.76C98.9214 23.5467 99.1214 24.4467 99.0948 25.46L99.0748 26.32H91.4748C91.6214 27.08 91.9814 27.68 92.5548 28.12C93.1414 28.56 93.8814 28.78 94.7748 28.78C95.2548 28.78 95.6881 28.7067 96.0748 28.56C96.4748 28.4133 96.9014 28.1533 97.3548 27.78L98.6748 29.62C98.1014 30.1267 97.4414 30.52 96.6948 30.8C95.9614 31.0667 95.2281 31.2 94.4948 31.2ZM94.2148 22.56C92.7081 22.56 91.8014 23.24 91.4948 24.6H96.4948V24.52C96.4548 23.9467 96.2148 23.48 95.7748 23.12C95.3481 22.7467 94.8281 22.56 94.2148 22.56ZM105.394 31.2C104.46 31.2 103.627 30.9667 102.894 30.5C102.16 30.02 101.58 29.3667 101.154 28.54C100.74 27.7133 100.534 26.7733 100.534 25.72C100.534 24.6533 100.74 23.7067 101.154 22.88C101.58 22.0533 102.16 21.4067 102.894 20.94C103.627 20.46 104.46 20.22 105.394 20.22C106.034 20.22 106.64 20.3467 107.214 20.6C107.8 20.8533 108.274 21.18 108.634 21.58V16.2H111.374V31H108.774L108.734 29.74C108.387 30.1533 107.914 30.5 107.314 30.78C106.714 31.06 106.074 31.2 105.394 31.2ZM105.994 28.92C106.807 28.92 107.467 28.6267 107.974 28.04C108.48 27.44 108.734 26.6667 108.734 25.72C108.734 24.76 108.48 23.9867 107.974 23.4C107.467 22.8 106.807 22.5 105.994 22.5C105.18 22.5 104.52 22.8 104.014 23.4C103.507 23.9867 103.254 24.76 103.254 25.72C103.254 26.6667 103.507 27.44 104.014 28.04C104.52 28.6267 105.18 28.92 105.994 28.92ZM118.723 31.2C117.723 31.2 116.823 30.96 116.023 30.48C115.237 30 114.61 29.3467 114.143 28.52C113.69 27.6933 113.463 26.7533 113.463 25.7C113.463 24.66 113.69 23.7267 114.143 22.9C114.61 22.0733 115.237 21.42 116.023 20.94C116.823 20.46 117.723 20.22 118.723 20.22C119.67 20.22 120.53 20.3933 121.303 20.74C122.09 21.0867 122.703 21.5733 123.143 22.2L121.643 24C121.363 23.6133 120.977 23.2867 120.483 23.02C119.99 22.74 119.49 22.6 118.983 22.6C118.423 22.6 117.923 22.74 117.483 23.02C117.057 23.2867 116.717 23.6533 116.463 24.12C116.223 24.5867 116.103 25.1133 116.103 25.7C116.103 26.2867 116.23 26.8133 116.483 27.28C116.737 27.7467 117.083 28.12 117.523 28.4C117.963 28.6667 118.457 28.8 119.003 28.8C119.523 28.8 120.003 28.6867 120.443 28.46C120.883 28.22 121.283 27.8867 121.643 27.46L123.143 29.26C122.69 29.8467 122.063 30.32 121.263 30.68C120.463 31.0267 119.617 31.2 118.723 31.2ZM128.944 31.2C128.064 31.2 127.27 30.96 126.564 30.48C125.857 30 125.29 29.3467 124.864 28.52C124.45 27.6933 124.244 26.7533 124.244 25.7C124.244 24.62 124.45 23.6733 124.864 22.86C125.29 22.0333 125.864 21.3867 126.584 20.92C127.317 20.4533 128.144 20.22 129.064 20.22C129.81 20.22 130.464 20.3733 131.024 20.68C131.584 20.9733 132.03 21.36 132.364 21.84V20.44H135.084V31H132.344V29.58C131.97 30.0467 131.484 30.4333 130.884 30.74C130.297 31.0467 129.65 31.2 128.944 31.2ZM129.684 28.82C130.497 28.82 131.157 28.5333 131.664 27.96C132.17 27.3867 132.424 26.6333 132.424 25.7C132.424 24.7667 132.17 24.0133 131.664 23.44C131.157 22.8667 130.497 22.58 129.684 22.58C128.884 22.58 128.23 22.8667 127.724 23.44C127.23 24.0133 126.984 24.7667 126.984 25.7C126.984 26.6333 127.23 27.3867 127.724 27.96C128.23 28.5333 128.884 28.82 129.684 28.82ZM141.492 31.2C140.519 31.2 139.652 31.04 138.892 30.72C138.132 30.4 137.519 29.9467 137.052 29.36L138.772 27.9C139.172 28.34 139.626 28.66 140.132 28.86C140.639 29.0467 141.152 29.14 141.672 29.14C142.086 29.14 142.419 29.0467 142.672 28.86C142.926 28.6733 143.052 28.4133 143.052 28.08C143.052 27.7867 142.932 27.5533 142.692 27.38C142.452 27.22 141.879 27.02 140.972 26.78C139.626 26.4333 138.672 25.96 138.112 25.36C137.619 24.8267 137.372 24.1667 137.372 23.38C137.372 22.7533 137.559 22.2067 137.932 21.74C138.306 21.26 138.799 20.8867 139.412 20.62C140.026 20.3533 140.692 20.22 141.412 20.22C142.239 20.22 143.019 20.3667 143.752 20.66C144.486 20.9533 145.099 21.3533 145.592 21.86L144.112 23.48C143.739 23.1333 143.306 22.8467 142.812 22.62C142.332 22.38 141.886 22.26 141.472 22.26C140.512 22.26 140.032 22.5933 140.032 23.26C140.046 23.58 140.192 23.8333 140.472 24.02C140.739 24.2067 141.346 24.4267 142.292 24.68C143.559 25.0133 144.452 25.4533 144.972 26C145.426 26.4667 145.652 27.0867 145.652 27.86C145.652 28.5 145.466 29.0733 145.092 29.58C144.732 30.0867 144.239 30.4867 143.612 30.78C142.986 31.06 142.279 31.2 141.492 31.2ZM148.758 31V22.9H146.758V20.44H148.758V17.74H151.478V20.44H153.698V22.9H151.478V31H148.758ZM155.53 31V20.44H158.17L158.21 22.18C158.557 21.6067 159.01 21.14 159.57 20.78C160.143 20.4067 160.743 20.22 161.37 20.22C161.61 20.22 161.83 20.24 162.03 20.28C162.243 20.3067 162.423 20.3467 162.57 20.4L161.83 23.4C161.683 23.32 161.497 23.2533 161.27 23.2C161.043 23.1467 160.817 23.12 160.59 23.12C159.937 23.12 159.383 23.3467 158.93 23.8C158.49 24.24 158.27 24.8 158.27 25.48V31H155.53Z" fill="#494D4B"/>
</g>
<defs>
<clipPath id="clip0">
<rect width="163" height="40" fill="white"/>
</clipPath>
</defs>
</svg>
